<?xml version="1.0" standalone="no"?>
<!DOCTYPE svg PUBLIC "-//W3C//DTD SVG 20010904//EN"
 "http://www.w3.org/TR/2001/REC-SVG-20010904/DTD/svg10.dtd">
<svg version="1.0" xmlns="http://www.w3.org/2000/svg"
 width="360.000000pt" height="360.000000pt" viewBox="0 0 360.000000 360.000000"
 preserveAspectRatio="xMidYMid meet">

<g transform="translate(0.000000,360.000000) scale(0.100000,-0.100000)"
fill="#000000" stroke="none">
<path d="M1605 3585 c-490 -72 -905 -407 -1080 -871 -82 -217 -105 -456 -65
-655 78 -380 412 -943 966 -1624 158 -196 373 -441 378 -433 1 2 40 46 87 98
344 382 744 917 951 1270 304 521 373 817 277 1201 -166 670 -830 1114 -1514
1014z m460 -319 c292 -76 540 -275 678 -544 124 -240 149 -487 73 -717 -114
-347 -460 -886 -943 -1468 l-73 -87 -106 127 c-160 194 -387 497 -521 698
-281 420 -419 721 -431 937 -23 450 280 885 722 1033 186 62 413 70 601 21z"/>
<path d="M1671 2714 c-163 -44 -304 -185 -347 -349 -19 -68 -17 -200 2 -266
61 -208 251 -350 469 -351 387 -3 617 396 428 743 -32 60 -127 150 -191 183
-110 56 -246 71 -361 40z"/>
</g>
</svg>
