<?xml version="1.0" standalone="no"?>
<svg  version="1.0" xmlns="http://www.w3.org/2000/svg"
 width="920.000000pt" height="512.000000pt" viewBox="0 0 920.000000 512.000000"
 preserveAspectRatio="xMidYMid meet">

<g transform="translate(0.000000,512.000000) scale(0.100000,-0.100000)"
fill="#000000" stroke="none">
<path d="M4355 5043 c-360 -45 -595 -112 -880 -253 -779 -384 -1303 -1120
-1411 -1980 -19 -153 -18 -471 1 -630 117 -934 757 -1745 1637 -2074 174 -65
292 -46 390 63 77 86 83 114 83 416 0 244 -1 262 -20 295 -12 19 -38 46 -58
60 l-38 24 35 18 c50 26 74 66 92 155 18 86 25 103 79 183 34 50 37 60 33 111
-5 62 -32 110 -78 134 -15 8 -81 26 -145 40 -489 106 -746 334 -821 731 -23
122 -15 385 14 495 29 108 74 201 142 295 33 46 63 96 66 112 3 16 -2 84 -11
151 -16 114 -18 321 -3 337 8 8 149 -41 216 -75 31 -16 104 -59 162 -95 58
-36 119 -69 135 -72 17 -3 80 4 140 15 304 57 711 55 999 -5 44 -9 94 -14 113
-11 18 3 72 32 120 64 157 104 365 195 390 169 16 -15 15 -194 -2 -327 -12
-97 -14 -147 -7 -167 5 -15 33 -59 62 -97 64 -84 110 -181 141 -295 21 -76 24
-106 23 -285 0 -233 -13 -299 -88 -450 -122 -246 -348 -400 -701 -480 -167
-37 -201 -51 -233 -93 -23 -30 -27 -45 -27 -103 0 -61 3 -71 34 -109 19 -23
43 -65 55 -94 19 -48 21 -75 26 -481 l5 -430 26 -56 c54 -114 137 -170 264
-177 73 -4 88 -1 180 33 246 91 532 257 743 433 491 408 817 1005 897 1642 18
146 21 465 5 602 -67 578 -323 1109 -735 1522 -401 402 -930 661 -1495 731
-113 14 -468 19 -555 8z m510 -174 c706 -71 1379 -496 1761 -1111 183 -297
294 -609 345 -978 18 -131 16 -443 -5 -593 -117 -858 -678 -1581 -1476 -1902
-132 -53 -180 -59 -233 -26 -65 40 -67 54 -67 481 0 300 -3 394 -15 451 -18
83 -45 149 -81 196 l-25 32 23 6 c246 54 338 84 472 153 323 166 509 430 557
791 17 123 6 374 -20 478 -39 156 -95 273 -195 408 -14 18 -14 33 0 140 28
209 7 398 -51 471 -22 27 -27 29 -97 28 -40 0 -100 -8 -133 -18 -83 -25 -244
-104 -343 -169 l-83 -55 -102 18 c-309 55 -685 56 -991 1 l-101 -19 -104 66
c-264 164 -494 225 -557 147 -57 -71 -78 -264 -50 -470 14 -107 14 -122 0
-140 -154 -208 -212 -377 -221 -656 -10 -296 42 -496 179 -696 91 -132 233
-250 403 -336 118 -59 220 -91 452 -142 l23 -5 -30 -41 c-36 -50 -67 -130 -76
-198 -8 -58 -9 -59 -158 -87 -256 -46 -365 5 -558 267 -95 128 -149 180 -205
197 -49 14 -363 65 -369 59 -2 -2 65 -56 150 -121 85 -64 173 -138 196 -164
23 -26 68 -103 102 -172 73 -151 126 -229 191 -281 123 -97 245 -128 434 -109
59 6 126 15 148 20 22 5 43 10 48 10 4 0 7 -100 7 -222 0 -254 -9 -291 -72
-324 -52 -27 -102 -21 -228 30 -812 330 -1370 1061 -1481 1941 -16 125 -16
418 0 550 98 801 581 1490 1299 1853 420 213 850 290 1337 241z"/>
</g>
</svg>
