<?xml version="1.0" standalone="no"?>
<svg version="1.0" xmlns="http://www.w3.org/2000/svg"
 width="920.000000pt" height="920.000000pt" viewBox="0 0 920.000000 920.000000"
 preserveAspectRatio="xMidYMid meet">

<g transform="translate(0.000000,920.000000) scale(0.100000,-0.100000)"
fill="#000000" stroke="none">
<path d="M7376 8034 c-37 -8 -112 -32 -165 -54 -167 -66 -1733 -724 -4776
-2007 -385 -162 -860 -362 -1055 -444 -458 -191 -542 -234 -636 -322 -59 -55
-82 -86 -116 -154 -38 -75 -42 -93 -46 -172 -2 -48 1 -112 7 -141 36 -167 181
-330 372 -419 35 -17 379 -136 763 -265 385 -129 702 -239 706 -243 4 -4 36
-100 70 -213 302 -994 468 -1525 501 -1607 63 -149 157 -271 245 -313 23 -11
75 -28 115 -36 93 -19 190 -7 283 35 65 29 118 75 691 600 116 106 215 195
222 198 6 2 325 -236 707 -530 661 -507 700 -535 774 -560 104 -35 169 -47
257 -47 275 0 500 136 619 375 30 60 43 113 91 360 45 233 368 1889 585 3000
23 116 61 311 85 435 24 124 67 342 95 485 28 143 66 339 85 435 49 253 111
568 152 775 47 236 50 382 11 491 -95 268 -347 401 -642 338z m89 -596 c-2
-13 -40 -207 -84 -433 -368 -1886 -489 -2511 -677 -3470 -118 -605 -235 -1206
-261 -1335 -39 -204 -49 -239 -71 -262 -16 -18 -36 -28 -54 -28 -64 0 -34 -22
-1058 765 -628 482 -712 546 -724 551 -6 2 -232 -197 -502 -443 -270 -247
-501 -457 -514 -468 l-23 -20 6 20 c4 11 54 321 112 690 l105 670 37 36 c21
20 238 222 483 450 245 228 713 664 1040 969 327 305 734 685 905 843 170 158
329 310 353 338 38 46 42 54 36 87 -9 51 -21 62 -66 62 -67 0 162 138 -2413
-1457 -506 -313 -979 -607 -1051 -651 -73 -45 -137 -82 -143 -82 -6 0 -205 66
-443 146 -238 80 -613 206 -832 280 -219 73 -401 135 -403 137 -2 2 45 25 104
49 164 69 759 319 1118 471 739 312 3959 1667 4300 1810 204 85 444 187 535
225 91 39 171 70 178 71 8 1 11 -7 7 -21z"/>
</g>
</svg>
