<?xml version="1.0" standalone="no"?>
<svg version="1.0" xmlns="http://www.w3.org/2000/svg"
 width="920.000000pt" height="920.000000pt" viewBox="0 0 920.000000 920.000000"
 preserveAspectRatio="xMidYMid meet">

<g transform="translate(0.000000,920.000000) scale(0.100000,-0.100000)"
fill="#000000" stroke="none">
<path d="M4240 9169 c-246 -20 -675 -87 -690 -109 -3 -4 -48 -17 -100 -29
-208 -49 -517 -153 -645 -216 -38 -19 -160 -78 -270 -130 -110 -53 -209 -105
-220 -115 -11 -9 -67 -46 -125 -80 -119 -70 -240 -151 -274 -183 -13 -12 -52
-42 -87 -67 -35 -25 -92 -69 -126 -97 -34 -29 -64 -53 -67 -53 -4 0 -25 -19
-49 -43 -23 -23 -87 -85 -142 -137 -195 -186 -418 -437 -501 -567 -19 -28 -37
-53 -42 -55 -10 -4 -137 -187 -144 -209 -8 -20 -98 -162 -108 -169 -4 -3 -26
-43 -49 -90 -24 -47 -47 -90 -51 -95 -5 -6 -24 -47 -43 -90 -19 -44 -57 -127
-85 -185 -83 -171 -169 -416 -227 -650 -14 -58 -32 -123 -40 -145 -19 -54 -60
-272 -79 -420 -49 -383 -49 -851 0 -1240 17 -140 70 -418 84 -443 5 -9 21 -64
35 -122 48 -195 179 -581 210 -620 6 -8 29 -55 51 -105 45 -103 183 -377 194
-385 9 -6 110 -168 110 -175 0 -10 119 -183 138 -202 10 -10 34 -40 52 -68 48
-72 158 -206 248 -304 42 -46 102 -112 132 -146 30 -35 87 -90 125 -123 39
-33 98 -86 132 -118 72 -68 203 -174 277 -223 28 -19 59 -42 69 -52 19 -20
192 -139 202 -139 8 0 169 -101 175 -110 7 -10 322 -169 406 -204 38 -16 76
-35 84 -41 39 -31 416 -159 631 -215 59 -15 111 -30 116 -33 12 -7 287 -61
392 -77 353 -52 915 -54 1291 -5 120 16 416 71 431 81 5 3 73 23 151 45 202
55 291 82 388 119 47 18 110 41 140 52 30 11 62 26 70 32 8 6 49 26 90 45 93
40 393 192 400 201 6 9 168 110 175 110 9 0 183 119 202 138 10 10 32 26 48
36 61 38 239 184 338 278 56 53 120 111 142 128 22 17 44 38 48 46 4 8 43 51
85 96 42 46 92 98 110 118 52 57 150 179 200 250 25 36 50 70 57 75 16 14 145
201 145 210 0 9 100 168 110 175 4 3 22 34 39 70 18 36 41 79 51 95 10 17 35
68 54 113 20 45 58 128 85 185 83 169 169 416 226 647 14 58 30 114 35 125 13
26 54 231 74 370 61 416 61 943 1 1370 -18 128 -65 368 -74 375 -3 3 -16 48
-29 100 -53 216 -168 556 -223 660 -10 19 -64 130 -120 245 -55 116 -109 219
-118 230 -10 11 -42 61 -71 110 -63 107 -163 257 -193 289 -12 13 -42 52 -67
87 -25 35 -69 92 -97 126 -29 34 -53 64 -53 66 0 9 -215 232 -310 322 -52 49
-116 111 -143 137 -26 26 -50 48 -53 48 -3 0 -33 24 -67 53 -34 28 -91 72
-126 97 -35 25 -74 55 -88 68 -33 30 -146 106 -273 182 -58 34 -114 71 -125
80 -11 10 -110 62 -220 115 -110 53 -231 111 -270 130 -134 65 -425 163 -645
217 -52 12 -97 26 -100 29 -8 11 -312 67 -450 83 -293 36 -703 46 -970 25z
m3007 -2542 c49 -18 109 -73 132 -120 l21 -43 0 -1847 c0 -1585 -2 -1853 -14
-1882 -18 -43 -80 -107 -126 -130 -33 -17 -163 -18 -2655 -18 -2514 0 -2621 0
-2655 18 -52 27 -100 75 -121 120 -18 39 -19 106 -19 1889 l0 1850 21 43 c23
47 83 102 132 120 24 9 669 11 2642 11 1973 0 2618 -2 2642 -11z"/>
<path d="M2660 6084 c0 -7 211 -184 219 -184 5 0 24 -17 41 -37 16 -21 71 -72
121 -113 51 -41 126 -107 168 -146 80 -75 123 -112 181 -156 19 -14 73 -63
120 -108 47 -45 93 -85 102 -89 10 -3 69 -55 132 -114 63 -59 118 -107 121
-107 6 0 125 -104 215 -189 19 -18 78 -69 130 -113 52 -44 109 -93 125 -109
47 -46 263 -229 270 -229 6 0 222 184 285 244 91 86 198 176 208 176 6 0 25
17 42 38 17 20 71 71 121 112 50 41 123 105 162 141 129 119 164 149 173 149
5 0 61 50 124 110 63 60 119 110 124 110 11 0 138 113 194 173 25 26 49 47 54
47 9 0 115 92 208 179 19 18 83 73 143 123 59 50 107 91 107 92 0 1 -875 1
-1945 1 -1070 0 -1945 -1 -1945 -1z"/>
<path d="M2270 4550 l0 -1263 28 24 c15 13 45 40 67 60 162 149 249 225 266
234 10 5 19 13 19 17 0 3 55 55 123 114 67 59 164 145 214 192 51 47 104 93
117 101 13 9 68 58 122 110 55 52 122 111 149 131 28 20 79 66 115 102 53 52
110 103 203 178 7 6 -64 90 -77 90 -6 0 -238 199 -256 220 -3 3 -61 54 -130
114 -69 59 -156 136 -195 171 -38 34 -92 80 -118 101 -27 22 -83 71 -125 110
-99 93 -171 154 -181 154 -4 0 -38 32 -77 70 -38 39 -94 89 -124 112 -30 23
-74 60 -97 82 l-43 40 0 -1264z"/>
<path d="M6870 5753 c-36 -29 -103 -89 -150 -132 -47 -43 -119 -106 -161 -139
-42 -34 -100 -85 -130 -114 -30 -29 -76 -71 -104 -93 -27 -21 -87 -72 -133
-113 -45 -41 -135 -119 -200 -175 -64 -55 -135 -117 -157 -137 -22 -21 -83
-74 -135 -119 -52 -45 -116 -101 -142 -124 l-47 -44 77 -61 c42 -33 111 -93
153 -134 41 -40 106 -97 142 -127 37 -29 97 -84 134 -122 38 -38 72 -69 77
-69 5 0 54 -42 110 -94 55 -51 144 -131 196 -177 87 -76 292 -258 465 -414
l70 -63 3 630 c1 346 1 910 0 1252 l-3 622 -65 -53z"/>
<path d="M5099 4207 c-37 -29 -87 -74 -113 -99 -26 -26 -81 -75 -124 -110 -42
-34 -101 -82 -131 -106 l-54 -44 -84 4 c-46 1 -87 8 -91 13 -10 14 -121 107
-152 127 -14 9 -63 53 -110 98 -47 46 -109 100 -138 122 -61 46 -52 49 -172
-62 -41 -38 -122 -111 -180 -161 -58 -51 -121 -107 -140 -125 -19 -17 -84 -76
-145 -129 -60 -54 -148 -133 -195 -176 -47 -42 -101 -90 -121 -106 -19 -15
-86 -75 -148 -133 -61 -58 -119 -108 -129 -112 -9 -3 -51 -40 -92 -82 l-74
-76 1902 0 c1046 0 1902 2 1902 4 0 10 -157 160 -190 181 -19 13 -66 54 -105
91 -38 36 -110 101 -159 142 -49 41 -115 101 -147 134 -31 32 -60 58 -64 58
-4 0 -55 44 -113 97 -157 143 -178 162 -284 257 -53 47 -99 86 -101 86 -2 0
-42 36 -88 80 -46 44 -86 80 -89 80 -3 0 -35 -24 -71 -53z"/>
</g>
</svg>
